<svg width="78" height="78" viewBox="0 0 78 78" fill="none" xmlns="http://www.w3.org/2000/svg">
<circle cx="39" cy="39" r="39" fill="white"/>
<path d="M39.796 31.3603C40.0375 31.279 40.3438 30.8827 40.3596 30.6313C40.7137 24.5683 35.7072 16.4856 33.9043 13.787C32.4529 14.3656 31.0405 15.3007 29.7366 16.7258C29.7366 16.7258 27.1328 18.4732 26.209 26.9636C31.0792 33.2709 37.1309 32.2395 39.796 31.3603Z" fill="#FD5D40"/>
<path d="M59.1111 20.5985L51.1324 18.651C51.1324 18.651 50.905 16.726 48.6425 15.935C46.9934 15.3571 41.3112 12.0913 35.7206 13.2448C37.8343 16.4621 42.5363 24.3925 42.1645 30.7357C42.1091 31.7331 41.3163 32.7635 40.3631 33.0785C39.4469 33.3834 37.8024 33.8055 35.8039 33.8055C32.9083 33.8055 29.2713 32.9149 25.9949 29.4912C25.9306 30.5792 25.8939 31.756 25.8874 33.0292C25.8507 39.5966 17.5086 45.8235 17.5086 45.8235L16.3975 48.1261C18.6652 53.0363 22.2203 57.2331 26.6338 60.2789C26.8339 57.1423 27.6204 54.6852 28.5314 52.8387C30.2568 49.3315 32.6764 47.385 33.9111 46.5613C34.1767 39.3228 36.5261 37.2072 38.4862 36.7235C39.0883 36.5743 39.723 36.7029 40.2223 37.0777C40.7905 37.5018 41.156 38.2018 41.1931 38.9532C41.2938 40.8989 42.4438 42.2648 42.9891 42.8073C43.8734 42.8896 44.7175 43.0296 45.5121 43.2222L45.5851 42.5397L46.1925 36.6423C46.2954 35.6469 47.19 34.8079 48.1803 34.666C51.9407 34.1182 60.3189 31.8908 60.8634 22.8393C60.926 21.8409 60.083 20.8369 59.1111 20.5985ZM46.6804 22.7011C46.1174 22.7011 45.6603 22.246 45.6603 21.6824C45.6603 21.1189 46.1174 20.6638 46.6804 20.6638C47.2445 20.6638 47.6994 21.1189 47.6994 21.6824C47.6974 22.245 47.2435 22.7011 46.6804 22.7011Z" fill="#FD5D40"/>
<path d="M51.1344 49.6515C50.8328 47.0854 47.2104 44.9708 42.5297 44.6704C42.5297 44.6704 40.0444 42.7598 39.8776 39.4618C39.8502 38.9625 39.477 38.4663 38.9923 38.5859C37.7416 38.8936 35.6179 40.4993 35.5121 47.8328C35.5121 47.8328 28.7094 51.2648 28.2178 61.1591C32.5784 63.779 37.6599 65.3158 43.0837 65.4052L43.0229 63.9878C43.0004 63.4885 43.3627 62.941 43.8299 62.766L49.6244 60.5929C49.6244 60.5929 52.3418 60.7454 53.4721 58.7053C54.0444 57.6769 54.5755 56.9582 54.9668 56.4952C55.2868 56.1143 55.2818 55.5698 54.9236 55.2218C53.7397 54.0791 51.3598 51.5693 51.1344 49.6515ZM47.6972 52.1354C47.1352 52.1354 46.6791 51.6816 46.6791 51.1176C46.6791 50.5524 47.1352 50.0975 47.6972 50.0975C48.2611 50.0975 48.7172 50.5524 48.7172 51.1176C48.7174 51.6813 48.2613 52.1354 47.6972 52.1354Z" fill="#FD5D40"/>
</svg>
